<svg xmlns="http://www.w3.org/2000/svg" width="142.45mm" height="58.51mm" viewBox="0 0 403.8 165.84"><defs><style>.a{fill:#4c4a50;}.b{fill:#e30613;}.c{fill:#647a84;}</style></defs><title>uiv_logo_mText</title><path class="a" d="M185.3,117.94c-.39-1.72-.94-2.17-2.71-2.17h-.74c-1.77,0-2.12.45-1.67,2.17l3.94,16.26a11.06,11.06,0,0,0,2.32,5.12c.94.94,2.66,1.38,5.18,1.38s4.24-.49,5.17-1.43a11.08,11.08,0,0,0,2.32-5.08L203,117.94c.44-1.72.1-2.17-1.68-2.17h-.74c-1.77,0-2.32.45-2.71,2.17l-3.84,16c-.44,2-1,2.37-2.46,2.37s-2-.44-2.46-2.37l-3.84-16"/><path class="a" d="M208.33,138c0,1.77.44,2.22,2.22,2.22h.64c1.77,0,2.22-.44,2.22-2.22V118c0-1.77-.44-2.22-2.22-2.22h-.64c-1.77,0-2.22.45-2.22,2.22v20Z"/><path class="a" d="M240.88,125.43c0-6.7-3.6-10.2-10.45-10.2-7.29,0-10.94,3.55-10.94,10.69v4.29c0,7.44,3.84,10.55,12.12,10.55A24,24,0,0,0,238,140c1.73-.44,2-.79,2-2.41v-.64c0-1.72-.44-2.12-2-1.72a27.45,27.45,0,0,1-6.41.79c-5,0-7-1.43-7-5v-1.08h13.7c1.82,0,2.32-.44,2.51-2.27.05-.74.1-1.43.1-2.17Zm-4.78.29H224.56V124.5c0-3.25,1.92-4.88,5.72-4.88s5.82,1.63,5.82,4.88v1.23Z"/><path class="a" d="M250.78,124.79c0-3.35,1.28-4.83,5.67-4.83s5.62,1.48,5.62,4.83V138c0,1.77.44,2.22,2.22,2.22h.64c1.77,0,2.22-.44,2.22-2.22V124.79c0-6.36-3.2-9.56-10.69-9.56-7.15,0-10.74,3.2-10.74,9.56V138c0,1.77.44,2.22,2.22,2.22h.64c1.77,0,2.22-.44,2.22-2.22V124.79Z"/><path class="a" d="M277.54,124.79c0-3.35,1.28-4.83,5.67-4.83s5.62,1.48,5.62,4.83V138c0,1.77.44,2.22,2.22,2.22h.64c1.77,0,2.22-.44,2.22-2.22V124.79c0-6.36-3.2-9.56-10.69-9.56-7.15,0-10.74,3.2-10.74,9.56V138c0,1.77.44,2.22,2.22,2.22h.64c1.77,0,2.22-.44,2.22-2.22V124.79Z"/><path class="a" d="M318.3,132.87v-9.56c0-5.87-4-8.08-11.14-8.08a31,31,0,0,0-4.93.39c-1.38.25-1.77.69-1.77,2.12v.69c0,1.53.39,1.82,1.82,1.58a26.7,26.7,0,0,1,5.17-.44c3.89,0,5.81.84,5.81,3.75v2.41h-5.42c-6.5,0-10.05,2.17-10.05,7.44,0,5.08,3.35,7.59,10,7.59,7.29,0,10.5-2.42,10.5-7.89Zm-5-.25c0,3.11-1.87,3.85-5.57,3.85-3,0-4.83-.79-4.83-3.4s1.58-3.5,5-3.5h5.42v3.05Z"/><path class="b" d="M377.53,89.28V85c0-7.1-3.4-10.64-11.24-10.64C358.66,74.4,355,78.15,355,85v4.24c0,7.1,3.45,10.64,11.33,10.64,7.54,0,11.24-3.79,11.24-10.64Zm-5.08,0c0,4.14-1.38,5.87-6.16,5.87S360,93.37,360,89.28V85c0-4.14,1.48-5.91,6.26-5.91s6.16,1.77,6.16,5.91v4.24Z"/><path class="b" d="M267.84,89.28V85c0-7.1-3.4-10.64-11.24-10.64-7.64,0-11.33,3.75-11.33,10.64v4.24c0,7.1,3.45,10.64,11.33,10.64,7.54,0,11.24-3.79,11.24-10.64Zm-5.08,0c0,4.14-1.38,5.87-6.16,5.87s-6.26-1.78-6.26-5.87V85c0-4.14,1.48-5.91,6.26-5.91s6.16,1.77,6.16,5.91v4.24Z"/><path class="b" d="M181.3,97.17c0,1.78.44,2.22,2.22,2.22h.64c1.77,0,2.22-.44,2.22-2.22v-20c0-1.77-.44-2.22-2.22-2.22h-.64c-1.77,0-2.22.44-2.22,2.22v20"/><path class="b" d="M197.32,84c0-3.35,1.28-4.83,5.67-4.83s5.62,1.48,5.62,4.83V97.17c0,1.78.44,2.22,2.22,2.22h.64c1.77,0,2.22-.44,2.22-2.22V84c0-6.36-3.2-9.56-10.69-9.56-7.15,0-10.74,3.2-10.74,9.56V97.17c0,1.78.44,2.22,2.22,2.22h.64c1.77,0,2.22-.44,2.22-2.22V84Z"/><path class="b" d="M224.08,84c0-3.35,1.28-4.83,5.67-4.83s5.62,1.48,5.62,4.83V97.17c0,1.78.44,2.22,2.22,2.22h.64c1.77,0,2.22-.44,2.22-2.22V84c0-6.36-3.2-9.56-10.69-9.56C222.6,74.4,219,77.6,219,84V97.17c0,1.78.44,2.22,2.22,2.22h.64c1.77,0,2.22-.44,2.22-2.22V84Z"/><path class="b" d="M277.2,77.11c-.39-1.72-.94-2.17-2.71-2.17h-.74c-1.77,0-2.12.44-1.67,2.17L276,93.37a11,11,0,0,0,2.32,5.13c.94.94,2.66,1.38,5.17,1.38s4.24-.49,5.17-1.43A11,11,0,0,0,291,93.37l3.94-16.26c.44-1.72.1-2.17-1.68-2.17h-.74c-1.77,0-2.32.44-2.71,2.17l-3.84,16c-.44,2-1,2.37-2.46,2.37s-2-.44-2.46-2.37l-3.84-16Z"/><path class="b" d="M318.3,92V82.48c0-5.86-4-8.08-11.14-8.08a30.77,30.77,0,0,0-4.93.39c-1.38.25-1.77.69-1.77,2.12v.69c0,1.53.39,1.82,1.82,1.58a26.72,26.72,0,0,1,5.18-.44c3.89,0,5.81.84,5.81,3.75V84.9h-5.42c-6.5,0-10.05,2.17-10.05,7.44,0,5.08,3.35,7.59,10,7.59,7.29,0,10.5-2.41,10.5-7.88Zm-5-.25c0,3.11-1.87,3.84-5.57,3.84-3,0-4.83-.79-4.83-3.4s1.58-3.5,5-3.5h5.42V91.8Z"/><path class="b" d="M321.16,77.95c0,1.38.34,1.73,1.72,1.73h2.56V90.81c0,6.06,3,9.07,8.87,9.07a22,22,0,0,0,4-.39c1.63-.34,2-.84,2-2.46v-.59c0-1.72-.39-2.07-2-1.72a16.53,16.53,0,0,1-4,.44q-3.84,0-3.84-4.29V79.67h6.9c1.63,0,2.07-.35,2.07-2.07V77c0-1.73-.44-2.07-2.07-2.07h-6.9V70.31c0-1.43-.34-1.77-1.77-1.77h-.64c-1.43,0-1.82.35-2,1.77l-.59,4.63-2.61.49c-1.33.25-1.68.64-1.68,2v.49Z"/><path class="b" d="M344.51,97.17c0,1.78.44,2.22,2.22,2.22h.64c1.77,0,2.22-.44,2.22-2.22v-20c0-1.77-.44-2.22-2.22-2.22h-.64c-1.77,0-2.22.44-2.22,2.22v20Z"/><path class="b" d="M387.44,84c0-3.35,1.28-4.83,5.67-4.83s5.62,1.48,5.62,4.83V97.17c0,1.78.44,2.22,2.22,2.22h.64c1.77,0,2.22-.44,2.22-2.22V84c0-6.36-3.2-9.56-10.69-9.56-7.14,0-10.74,3.2-10.74,9.56V97.17c0,1.78.44,2.22,2.22,2.22h.64c1.77,0,2.22-.44,2.22-2.22V84Z"/><path class="b" d="M186.34,36.33c0-1.77-.44-2.22-2.22-2.22h-.64c-1.77,0-2.22.44-2.22,2.22V49.49c0,6.41,3.6,9.61,10.74,9.61,7.49,0,10.69-3.25,10.69-9.61V36.33c0-1.77-.44-2.22-2.22-2.22h-.64c-1.77,0-2.22.44-2.22,2.22V49.49c0,3.35-1.23,4.83-5.62,4.83s-5.67-1.48-5.67-4.83V36.33"/><path class="b" d="M213,42.64c0-3,.94-4.34,4.24-4.34a5.69,5.69,0,0,1,1,0c1.72.25,2.07-.1,2.07-1.72v-.69c0-1.73-.44-2.12-2.07-2.32a5.73,5.73,0,0,0-1,0q-9.31,0-9.31,8.72v14c0,1.77.44,2.22,2.22,2.22h.64c1.78,0,2.22-.44,2.22-2.22V42.64Z"/><path class="b" d="M246.51,48.55V44.31c0-7.15-3.4-10.74-10.25-10.74-3.5,0-5.91,1.08-7.24,3.2V26.28c0-1.77-.44-2.22-2.22-2.22h-.59c-1.77,0-2.22.44-2.22,2.22V48.55c0,7,4.19,10.55,11.24,10.55,7.54,0,11.29-3.4,11.29-10.55Zm-5.08-.1c0,4.14-1.28,5.86-6.16,5.86S229,52.54,229,48.45V44.21c0-4.14,1.48-5.91,6.26-5.91s6.16,1.77,6.16,5.91v4.24Z"/><path class="b" d="M270.66,51.21V41.65c0-5.86-4-8.08-11.14-8.08a30.77,30.77,0,0,0-4.93.39c-1.38.25-1.77.69-1.77,2.12v.69c0,1.53.39,1.82,1.82,1.58a26.68,26.68,0,0,1,5.17-.44c3.89,0,5.82.84,5.82,3.75v2.41h-5.42c-6.5,0-10.05,2.17-10.05,7.44,0,5.08,3.35,7.59,10,7.59,7.29,0,10.5-2.41,10.5-7.88Zm-5-.25c0,3.1-1.87,3.84-5.57,3.84-3,0-4.83-.79-4.83-3.4s1.58-3.5,5-3.5h5.42V51Z"/><path class="b" d="M280.56,43.13c0-3.35,1.28-4.83,5.67-4.83s5.62,1.48,5.62,4.83V56.34c0,1.77.44,2.22,2.22,2.22h.64c1.77,0,2.22-.44,2.22-2.22V43.13c0-6.36-3.2-9.56-10.69-9.56-7.14,0-10.74,3.2-10.74,9.56V56.34c0,1.77.44,2.22,2.22,2.22h.64c1.77,0,2.22-.44,2.22-2.22V43.13Z"/><path class="a" d="M185.58,162.5c0-.29-.07-1.1-.07-1.48v-2.87c0-1.81-.56-2.79-2-2.79a2.33,2.33,0,0,0-1.87,1l.49.57a1.64,1.64,0,0,1,1.29-.74c.75,0,1.24.54,1.24,1.74v.36h-.54c-1.14,0-2.73.39-2.73,2.38,0,1.45.89,2,1.66,2a1.64,1.64,0,0,0,1.67-1.48h0c0,.33,0,1,0,1.29Zm-.9-3c0,1.06-.33,2.46-1.39,2.46-.5,0-1-.4-1-1.37,0-1.31,1-1.57,1.85-1.57h.56v.47Zm9.19,2.55-.42-.71a1.21,1.21,0,0,1-1,.56c-1,0-1.5-1.17-1.5-2.81s.47-2.87,1.46-2.87a1.17,1.17,0,0,1,1,.51l.49-.67a1.92,1.92,0,0,0-1.5-.65c-1.56,0-2.39,1.49-2.39,3.68s.81,3.68,2.38,3.68a1.86,1.86,0,0,0,1.53-.71Zm5.72-3c0-2.2-.91-3.69-2.41-3.69s-2.41,1.49-2.41,3.69.92,3.66,2.41,3.66,2.41-1.49,2.41-3.66Zm-.95,0c0,1.62-.46,2.85-1.46,2.85s-1.46-1.24-1.46-2.85.46-2.88,1.46-2.88,1.46,1.25,1.46,2.88Zm3.79-2.1h0c0-.45,0-1-.06-1.35h-.89c0,.28.06,1.16.06,1.74v5.17h.91v-4c0-1.24.53-2.34,1.45-2.34s1.06,1,1.06,1.86v4.46h.92v-4c0-1.24.53-2.34,1.43-2.34s1.09,1,1.09,1.86v4.46h.93V158c0-1.28-.25-2.67-1.73-2.67a2,2,0,0,0-1.82,1.59h0c-.14-.83-.54-1.59-1.56-1.59a1.79,1.79,0,0,0-1.73,1.57Zm13.85,2.12c0-2.14-.79-3.69-2.19-3.69a1.67,1.67,0,0,0-1.66,1.46h0v-1.24h-.89v10.25h.92v-4.53h0a1.71,1.71,0,0,0,1.64,1.41c1.43,0,2.19-1.52,2.19-3.66Zm-.95,0c0,1.63-.45,2.88-1.45,2.88s-1.48-1.25-1.48-2.88.49-2.87,1.48-2.87,1.45,1.27,1.45,2.87Zm6.5,3.47c0-.29-.07-1.1-.07-1.48v-2.87c0-1.81-.56-2.79-2-2.79a2.33,2.33,0,0,0-1.87,1l.49.57a1.64,1.64,0,0,1,1.29-.74c.75,0,1.24.54,1.24,1.74v.36h-.54c-1.14,0-2.73.39-2.73,2.38,0,1.45.89,2,1.66,2a1.64,1.64,0,0,0,1.67-1.48h0c0,.33,0,1,0,1.29Zm-.91-3c0,1.06-.34,2.46-1.39,2.46-.5,0-1-.4-1-1.37,0-1.31,1-1.57,1.85-1.57h.56v.47Zm7.44,3V158c0-1.28-.24-2.67-1.73-2.67a1.88,1.88,0,0,0-1.75,1.57h0c0-.45,0-1-.06-1.35h-.89c0,.28.06,1.16.06,1.74v5.17h.92v-4c0-1.24.56-2.34,1.48-2.34s1.09,1,1.09,1.86v4.46Zm6.14-6.91h-.93l-1.32,5.83h0l-1.49-5.83h-1l2,7.16-.31,1.2c-.17.64-.4,1-.93,1a1.76,1.76,0,0,1-.51-.08l-.13.82a2.49,2.49,0,0,0,.71.11c1,0,1.44-.71,1.74-1.88l2.17-8.37Zm8.56,3.47c0-2.2-.9-3.69-2.41-3.69s-2.41,1.49-2.41,3.69.92,3.66,2.41,3.66,2.41-1.49,2.41-3.66Zm-.95,0c0,1.62-.46,2.85-1.46,2.85s-1.46-1.24-1.46-2.85.46-2.88,1.46-2.88,1.46,1.25,1.46,2.88Zm5.22-7.21a1.92,1.92,0,0,0-.57-.08c-1.23,0-1.77,1-1.77,2.38v1.46h-.93v.75H245v6.15h.91v-6.15h1.17v-.75h-1.17v-1.46c0-.81.21-1.6,1-1.6a1.25,1.25,0,0,1,.4.07l.07-.77Z"/><path class="b" d="M163.22,82v-48H127.84L114.22,90.29c-2.27,9.29-5.31,15.92-8.91,19.52s-10.23,5.5-19.9,5.5-16.3-1.71-19.9-5.31-6.63-10.23-8.91-19.71L43.71,37.06C14,43.21,0,59.31,0,89c0,41,29.4,53.38,75.81,53.38,58,0,87.41-11.6,87.41-60.34Zm-55.07-48h-30c-5.43,0-10.49.21-15.33.53L75.94,89.34c1.7,7.39,4.17,9.1,9.47,9.1,5.5,0,7.77-1.52,9.48-9.1l13.26-55.27Z"/><path class="b" d="M121.28,22a11,11,0,1,0-11-11,11,11,0,0,0,11,11Z"/><path class="b" d="M270.28,158.41h-3.33v1.85a2.22,2.22,0,0,0,.08.75.32.32,0,0,0,.31.17.38.38,0,0,0,.38-.22,2.55,2.55,0,0,0,.09-.86V159h2.46v.63a5.61,5.61,0,0,1-.1,1.21,2.46,2.46,0,0,1-.46.91,2.24,2.24,0,0,1-.92.72,3.56,3.56,0,0,1-1.4.24,4.06,4.06,0,0,1-1.44-.24,2.32,2.32,0,0,1-1-.65,2.35,2.35,0,0,1-.48-.91,5.72,5.72,0,0,1-.13-1.45v-2.48a4.26,4.26,0,0,1,.3-1.76,2,2,0,0,1,1-1,3.44,3.44,0,0,1,1.57-.34,3.5,3.5,0,0,1,1.79.41,2.3,2.3,0,0,1,1,1.1,5.28,5.28,0,0,1,.28,1.92v1.13Zm-2.6-1.39v-.62a3.06,3.06,0,0,0-.07-.85.26.26,0,0,0-.27-.19c-.17,0-.28.05-.32.16a3.43,3.43,0,0,0-.06.88V157Z"/><path class="b" d="M273.78,154l0,.78a1.92,1.92,0,0,1,.69-.71,1.84,1.84,0,0,1,.94-.23,1.76,1.76,0,0,1,1.09.31,1.38,1.38,0,0,1,.54.79,7.65,7.65,0,0,1,.12,1.6v6h-2.6v-5.89a5.21,5.21,0,0,0-.06-1.07c0-.13-.14-.19-.31-.19a.32.32,0,0,0-.34.22,5.88,5.88,0,0,0-.07,1.19v5.75h-2.6V154Z"/><path class="c" d="M280.6,152.13v2.33a2.38,2.38,0,0,1,.72-.46,2.21,2.21,0,0,1,.83-.15,1.91,1.91,0,0,1,1.16.34,1.4,1.4,0,0,1,.58.8,8.79,8.79,0,0,1,.1,1.65v5.87h-2.6v-6a4,4,0,0,0-.07-1,.35.35,0,0,0-.64,0,2.88,2.88,0,0,0-.08.87v6.07H278V152.13Z"/><path class="c" d="M290.74,157v2.09a8.75,8.75,0,0,1-.12,1.69,2.43,2.43,0,0,1-.49,1,2.23,2.23,0,0,1-1,.69,3.93,3.93,0,0,1-1.36.22,5,5,0,0,1-1.45-.19,2,2,0,0,1-.92-.57A2.29,2.29,0,0,1,285,161a7,7,0,0,1-.14-1.63v-2.18a5.38,5.38,0,0,1,.26-1.86,2.11,2.11,0,0,1,.92-1.07,3.23,3.23,0,0,1,1.7-.4,3.86,3.86,0,0,1,1.49.26,2.38,2.38,0,0,1,1,.68,2.43,2.43,0,0,1,.47.86,5.62,5.62,0,0,1,.12,1.34Zm-2.6-.64a3.17,3.17,0,0,0-.06-.82.34.34,0,0,0-.59,0,2.61,2.61,0,0,0-.08.82v3.85a2.5,2.5,0,0,0,.08.79.28.28,0,0,0,.29.18.29.29,0,0,0,.29-.17,2.24,2.24,0,0,0,.07-.72v-3.93Z"/><polygon class="c" points="294.26 152.13 294.26 162.51 291.59 162.51 291.59 152.13 294.26 152.13 294.26 152.13"/><path class="c" d="M301.07,152.13v10.37h-2.6v-.62a2.68,2.68,0,0,1-.77.58,2,2,0,0,1-.85.19,1.7,1.7,0,0,1-1-.32,1.42,1.42,0,0,1-.56-.73,5.2,5.2,0,0,1-.12-1.36v-4a5.35,5.35,0,0,1,.13-1.39,1.37,1.37,0,0,1,.57-.72,1.8,1.8,0,0,1,1.06-.31,2.08,2.08,0,0,1,1.6.69v-2.41Zm-2.6,4a1.75,1.75,0,0,0-.07-.63.31.31,0,0,0-.3-.16.3.3,0,0,0-.3.14,1.7,1.7,0,0,0-.08.65v4.18a2,2,0,0,0,.07.68.28.28,0,0,0,.28.16.31.31,0,0,0,.32-.18,2.89,2.89,0,0,0,.08-.9v-3.94Z"/><path class="b" d="M260.28,154l-1,8.5h-2.79c-.15-1-.34-2.41-.55-4.12q-.11,1.14-.29,2.28l-.29,1.85h-2.79l-1.1-8.5h2.21l.58,4.88q.06-.48.59-4.88h2.13l.52,4.88c.09-1.43.3-3.06.59-4.88Z"/><path class="c" d="M308.18,154l0,.78a1.92,1.92,0,0,1,.69-.7,1.8,1.8,0,0,1,.93-.24,1.75,1.75,0,0,1,1.09.32,1.4,1.4,0,0,1,.54.79,7.38,7.38,0,0,1,.12,1.6v6h-2.6v-5.9a5.23,5.23,0,0,0-.06-1.07c0-.13-.14-.19-.31-.19a.31.31,0,0,0-.34.22,5.5,5.5,0,0,0-.07,1.18v5.76h-2.6V154Z"/><path class="c" d="M318.3,154v6.55a14.11,14.11,0,0,1-.06,1.71,1.75,1.75,0,0,1-.43.82,2.35,2.35,0,0,1-1,.66,5.21,5.21,0,0,1-1.68.23,4,4,0,0,1-2-.42,1.77,1.77,0,0,1-.78-1.65h2.51c0,.38.14.57.42.57a.42.42,0,0,0,.4-.17,1.8,1.8,0,0,0,.1-.73V161a2.47,2.47,0,0,1-.71.46,2,2,0,0,1-.77.16,2.18,2.18,0,0,1-1.15-.28,1.44,1.44,0,0,1-.62-.74,4,4,0,0,1-.17-1.3v-3.09a2.76,2.76,0,0,1,.44-1.74,1.63,1.63,0,0,1,1.33-.53,2,2,0,0,1,.89.2,2.08,2.08,0,0,1,.72.6l.18-.65Zm-2.6,2.25a2.43,2.43,0,0,0-.07-.74.29.29,0,0,0-.3-.16.32.32,0,0,0-.32.18,1.75,1.75,0,0,0-.1.72v2.86a2.44,2.44,0,0,0,.07.74.29.29,0,0,0,.3.17.31.31,0,0,0,.33-.21,3,3,0,0,0,.08-.93v-2.63Z"/><polygon class="b" points="260.73 160.69 260.73 152.18 263.39 152.18 263.39 160.69 260.73 160.69 260.73 160.69"/><polygon class="c" points="302.05 160.66 302.05 152.15 304.71 152.15 304.71 160.66 302.05 160.66 302.05 160.66"/><polygon class="c" points="260.73 162.56 260.73 161.22 263.39 161.22 263.39 162.56 260.73 162.56 260.73 162.56"/><polygon class="b" points="302.05 162.53 302.05 161.18 304.71 161.18 304.71 162.53 302.05 162.53 302.05 162.53"/></svg>