<svg xmlns="http://www.w3.org/2000/svg" width="52.26" height="57.24" viewBox="0 0 52.26 57.24"><defs><style>.a{fill:#f7a600;}.b{fill:#4c4a50;}</style></defs><title>Element 1</title><path class="a" d="M39.42,19.81V8.23H30.88L27.59,21.81a10.29,10.29,0,0,1-2.15,4.71c-.87.87-2.47,1.33-4.8,1.33s-3.94-.41-4.81-1.28a10.26,10.26,0,0,1-2.15-4.76L10.56,8.95C3.39,10.44,0,14.33,0,21.5c0,9.9,7.1,12.89,18.31,12.89,14,0,21.11-2.8,21.11-14.57ZM26.12,8.23H18.87c-1.31,0-2.53,0-3.7.13l3.17,13.22c.41,1.79,1,2.2,2.29,2.2s1.88-.37,2.29-2.2l3.2-13.35Z"/><path class="a" d="M29.29,5.32a2.66,2.66,0,1,0-2.66-2.66,2.66,2.66,0,0,0,2.66,2.66Z"/><path class="b" d="M.15,44.06c0,.39.08.48.48.59a6.44,6.44,0,0,0,1.64.21c1.69,0,2.42-.53,2.42-1.68,0-.9-.41-1.32-1.28-1.69L2,40.88c-.42-.19-.56-.32-.56-.61s.28-.49,1.05-.49A5.09,5.09,0,0,1,3.94,40c.38.11.49,0,.49-.41v-.14c0-.39-.08-.47-.5-.6a5.24,5.24,0,0,0-1.39-.18c-1.59,0-2.29.52-2.29,1.63A1.58,1.58,0,0,0,1.44,41.9l1.29.57c.61.28.77.42.77.72s-.3.51-1.11.51a6.73,6.73,0,0,1-1.75-.23c-.38-.1-.48,0-.48.42v.16Z"/><path class="b" d="M7.11,41c0-.81.28-1.18,1.2-1.18s1.19.36,1.19,1.18v3.21c0,.43.11.54.54.54h.12c.43,0,.54-.11.54-.54V41c0-.81.29-1.18,1.21-1.18s1.19.36,1.19,1.18v3.21c0,.43.11.54.54.54h.16c.43,0,.54-.11.54-.54V41c0-1.54-.74-2.33-2.42-2.33a1.87,1.87,0,0,0-1.8.87,1.87,1.87,0,0,0-1.8-.87c-1.62,0-2.43.78-2.43,2.33v3.21c0,.43.11.54.54.54h.16c.43,0,.54-.11.54-.54V41Z"/><path class="b" d="M20.32,42.93V40.6c0-1.43-1-2-2.71-2a7.64,7.64,0,0,0-1.2.1c-.33.06-.43.17-.43.52v.17c0,.37.1.44.44.38a6.45,6.45,0,0,1,1.26-.11c.95,0,1.41.21,1.41.91v.59H17.78c-1.58,0-2.45.53-2.45,1.81s.82,1.85,2.43,1.85c1.77,0,2.55-.59,2.55-1.92Zm-1.22-.06c0,.75-.46.94-1.35.94-.72,0-1.18-.19-1.18-.83s.38-.85,1.21-.85H19.1v.74Z"/><path class="b" d="M22.73,40.84c0-.73.23-1.06,1-1.06a1.21,1.21,0,0,1,.24,0c.42.06.5,0,.5-.42v-.17c0-.42-.11-.51-.5-.56h-.24q-2.27,0-2.27,2.12v3.42c0,.43.11.54.54.54h.16c.43,0,.54-.11.54-.54V40.84Z"/><path class="b" d="M25.14,39.5c0,.34.08.42.42.42h.62v2.71a1.93,1.93,0,0,0,2.16,2.21,5.29,5.29,0,0,0,1-.1c.39-.08.49-.2.49-.6V44c0-.42-.1-.5-.49-.42a4,4,0,0,1-1,.11q-.94,0-.94-1V39.92h1.68c.4,0,.5-.08.5-.5v-.14c0-.42-.11-.5-.5-.5H27.4V37.64c0-.35-.08-.43-.43-.43h-.16c-.35,0-.44.08-.49.43l-.14,1.13-.64.12c-.32.06-.41.16-.41.49v.12Z"/><path class="b" d="M33.52,42.33c0,1.68.9,2.52,2.82,2.52a4,4,0,0,0,1-.12c.4-.1.5-.2.5-.6V44c0-.4-.09-.49-.49-.41a5.29,5.29,0,0,1-.92.11c-1.19,0-1.64-.35-1.64-1.39V41.17c0-1,.41-1.38,1.56-1.38a2.73,2.73,0,0,1,.89.12c.38.11.5,0,.5-.4v-.16c0-.39-.08-.5-.48-.6a3.71,3.71,0,0,0-.94-.12c-1.83,0-2.77.95-2.77,2.52v1.17Z"/><path class="b" d="M39.07,44.18c0,.43.11.54.54.54h.16c.43,0,.54-.11.54-.54V39.31c0-.43-.11-.54-.54-.54h-.16c-.43,0-.54.11-.54.54v4.87Z"/><path class="b" d="M41.25,39.5c0,.34.08.42.42.42h.62v2.71a1.93,1.93,0,0,0,2.16,2.21,5.29,5.29,0,0,0,1-.1c.4-.08.49-.2.49-.6V44c0-.42-.09-.5-.49-.42a4,4,0,0,1-1,.11q-.94,0-.94-1V39.92h1.68c.4,0,.5-.08.5-.5v-.14c0-.42-.11-.5-.5-.5H43.52V37.64c0-.35-.08-.43-.43-.43h-.16c-.35,0-.44.08-.49.43l-.14,1.13-.63.12c-.32.06-.41.16-.41.49v.12Z"/><path class="b" d="M47.92,39.31c-.11-.43-.24-.54-.68-.54h-.16c-.44,0-.53.11-.42.54l1,4c.27,1.05.55,1.53,1.45,1.53a1.28,1.28,0,0,0,.55-.08c-.28.95-.73,1.44-1.55,1.55-.32,0-.42.14-.33.48l0,.16c.08.37.24.48.54.45,1.38-.14,2.17-1,2.57-2.64l1.29-5.41c.11-.43,0-.54-.42-.54h-.16c-.44,0-.58.11-.67.54l-.9,3.86c-.11.47-.27.59-.56.59s-.54-.11-.65-.59l-.95-3.86Z"/><path class="a" d="M5,50.48c0-1.43-1-2-2.71-2a7.42,7.42,0,0,0-1.2.1c-.34.06-.43.17-.43.52v.17c0,.37.1.44.44.38a6.46,6.46,0,0,1,1.26-.11c.95,0,1.41.2,1.41.91v.59H2.45C.86,51.07,0,51.6,0,52.88s.81,1.85,2.43,1.85c1.77,0,2.55-.59,2.55-1.92V50.48ZM3.76,52.75c0,.76-.46.94-1.35.94-.72,0-1.17-.19-1.17-.83S1.62,52,2.45,52H3.76v.74Zm7.71-2.11A1.66,1.66,0,0,0,11,49.42l.49-.53c.25-.25.24-.4,0-.65l-.11-.11c-.25-.25-.4-.25-.67,0l-.68.59a3.13,3.13,0,0,0-1.14-.19c-1.64,0-2.61.78-2.61,2.12v.11a1.76,1.76,0,0,0,1,1.75c-.64.16-.95.49-.95,1a.92.92,0,0,0,.45.84,1.3,1.3,0,0,0-.64,1.21,1.37,1.37,0,0,0,.59,1.23,4.24,4.24,0,0,0,2.18.4A3.94,3.94,0,0,0,11,56.79a1.63,1.63,0,0,0,.6-1.44A1.45,1.45,0,0,0,11,54a4.27,4.27,0,0,0-2.15-.38,5.31,5.31,0,0,1-1.1-.07c-.18,0-.26-.14-.26-.28A.31.31,0,0,1,7.78,53a5.29,5.29,0,0,1,1.11-.07c1.72,0,2.58-.72,2.58-2.16v-.11Zm-1.23.11c0,.73-.32,1.09-1.34,1.09s-1.38-.36-1.38-1.09v-.11c0-.67.37-1.05,1.38-1.05s1.34.38,1.34,1.05v.11ZM8.9,54.69c1.14,0,1.5.08,1.5.7s-.4.78-1.5.78S7.36,56,7.36,55.41a.76.76,0,0,1,.44-.77,8.46,8.46,0,0,0,1.09,0ZM17.66,51a2.24,2.24,0,0,0-2.54-2.48c-1.77,0-2.66.86-2.66,2.6v1c0,1.81.93,2.56,2.95,2.56A5.89,5.89,0,0,0,17,54.54c.42-.11.49-.19.49-.59v-.16c0-.42-.11-.51-.49-.42a6.63,6.63,0,0,1-1.56.19c-1.21,0-1.71-.35-1.71-1.22v-.26H17c.44,0,.56-.11.61-.55,0-.18,0-.35,0-.53Zm-4-.23c0-.79.47-1.19,1.39-1.19s1.41.4,1.41,1.19v.3H13.69v-.3Zm6.38.07c0-.82.31-1.18,1.38-1.18s1.37.36,1.37,1.18v3.21c0,.43.11.54.54.54h.16c.43,0,.54-.11.54-.54V50.85c0-1.55-.78-2.33-2.6-2.33s-2.61.78-2.61,2.33v3.21c0,.43.11.54.54.54h.16c.43,0,.54-.11.54-.54V50.85Zm5.16,1.37c0,1.68.9,2.52,2.82,2.52a4,4,0,0,0,1-.12c.4-.1.5-.21.5-.6v-.14c0-.39-.1-.49-.49-.41a5.3,5.3,0,0,1-.92.11c-1.19,0-1.64-.35-1.64-1.39V51c0-1,.41-1.38,1.56-1.38a2.74,2.74,0,0,1,.89.12c.38.11.5,0,.5-.39v-.16c0-.39-.08-.5-.48-.6a3.7,3.7,0,0,0-.93-.12c-1.83,0-2.77.95-2.77,2.52v1.17Zm6.29-3c-.11-.43-.24-.54-.68-.54h-.16c-.44,0-.53.11-.42.54l1,4c.27,1.06.55,1.54,1.45,1.54a1.32,1.32,0,0,0,.55-.08c-.28.95-.73,1.44-1.55,1.55-.32,0-.42.14-.33.48l0,.16c.08.37.24.48.54.44,1.38-.14,2.17-1,2.57-2.64l1.29-5.41c.11-.43,0-.54-.42-.54h-.16c-.44,0-.58.11-.67.54l-.9,3.86c-.11.47-.28.59-.56.59s-.54-.11-.65-.59l-.95-3.86Z"/></svg>